# Blender 4.5.3 LTS
# www.blender.org
mtllib model.mtl
o Cube.001
v 0.700357 0.025945 -1.130416
v 0.729538 0.025945 -1.085199
v 0.711524 0.025945 -1.126974
v 0.720991 0.025945 -1.117173
v 0.727317 0.025945 -1.102503
v 0.729538 -0.025945 -1.085199
v 0.700357 -0.025945 -1.130416
v 0.727317 -0.025945 -1.102503
v 0.720991 -0.025945 -1.117173
v 0.711524 -0.025945 -1.126974
v -0.729538 0.025945 -1.085199
v -0.700357 0.025945 -1.130416
v -0.727317 0.025945 -1.102503
v -0.720991 0.025945 -1.117173
v -0.711524 0.025945 -1.126974
v -0.700357 -0.025945 -1.130416
v -0.729538 -0.025945 -1.085199
v -0.711524 -0.025945 -1.126974
v -0.720991 -0.025945 -1.117173
v -0.727317 -0.025945 -1.102503
v -0.700357 0.025945 1.130416
v -0.729538 0.025945 1.085199
v -0.711524 0.025945 1.126974
v -0.720991 0.025945 1.117173
v -0.727317 0.025945 1.102503
v -0.729538 -0.025945 1.085199
v -0.700357 -0.025945 1.130416
v -0.727317 -0.025945 1.102503
v -0.720991 -0.025945 1.117173
v -0.711524 -0.025945 1.126974
v 0.729538 0.025945 1.085199
v 0.700357 0.025945 1.130416
v 0.727317 0.025945 1.102503
v 0.720991 0.025945 1.117173
v 0.711524 0.025945 1.126974
v 0.700357 -0.025945 1.130416
v 0.729538 -0.025945 1.085199
v 0.711524 -0.025945 1.126974
v 0.720991 -0.025945 1.117173
v 0.727317 -0.025945 1.102503
vn 0.2946 -0.0000 -0.9556
vn 0.7193 -0.0000 -0.6947
vn 0.9183 -0.0000 -0.3960
vn 0.9919 -0.0000 -0.1273
vn -0.2946 -0.0000 -0.9556
vn -0.7193 -0.0000 -0.6947
vn -0.9183 -0.0000 -0.3960
vn -0.9919 -0.0000 -0.1273
vn -0.0000 -0.0000 -1.0000
vn -0.2946 -0.0000 0.9556
vn -0.7193 -0.0000 0.6947
vn -0.9183 -0.0000 0.3960
vn -0.9919 -0.0000 0.1273
vn -1.0000 -0.0000 -0.0000
vn 0.2946 -0.0000 0.9556
vn 0.7193 -0.0000 0.6947
vn 0.9183 -0.0000 0.3960
vn 0.9919 -0.0000 0.1273
vn -0.0000 -0.0000 1.0000
vn 1.0000 -0.0000 -0.0000
vn -0.0000 1.0000 -0.0000
vn -0.0000 -1.0000 -0.0000
vt 0.625000 0.745000
vt 0.624625 0.746913
vt 0.875000 0.746913
vt 0.875000 0.745000
vt 0.623558 0.748558
vt 0.875000 0.750000
vt 0.621913 0.749625
vt 0.621913 1.000000
vt 0.625000 1.000000
vt 0.620000 0.750000
vt 0.620000 1.000000
vt 0.875000 0.505000
vt 0.875000 0.503087
vt 0.624625 0.503086
vt 0.625000 0.505000
vt 0.875000 0.500000
vt 0.623558 0.501442
vt 0.498106 0.278062
vt 0.496472 0.279141
vt 0.621913 0.500375
vt 0.494559 0.279516
vt 0.620000 0.500000
vt 0.375000 0.505000
vt 0.375375 0.503087
vt 0.125000 0.503087
vt 0.125000 0.505000
vt 0.376442 0.501442
vt 0.125000 0.500000
vt 0.378087 0.500375
vt 0.252646 0.279141
vt 0.251012 0.278062
vt 0.380000 0.500000
vt 0.254559 0.279516
vt 0.125000 0.745000
vt 0.125000 0.746913
vt 0.375375 0.746914
vt 0.375000 0.745000
vt 0.125000 0.750000
vt 0.376442 0.748558
vt 0.375000 1.000000
vt 0.378087 1.000000
vt 0.378087 0.749625
vt 0.380000 1.000000
vt 0.380000 0.750000
vt 0.991456 0.002358
vt 0.507356 0.002358
vt 0.503496 0.003853
vt 0.500179 0.008111
vt 0.498026 0.014672
vt 0.497271 0.022305
vt 0.497271 0.979764
vt 0.498026 0.987398
vt 0.500179 0.993959
vt 0.503497 0.998216
vt 0.507356 0.999711
vt 0.991456 0.999712
vt 0.995316 0.998217
vt 0.998633 0.993959
vt 1.000785 0.987398
vt 1.001542 0.979765
vt 1.001542 0.022305
vt 1.000785 0.014672
vt 0.998633 0.008111
vt 0.995316 0.003854
vt 0.486080 0.003741
vt 0.015108 0.003741
vt 0.011353 0.005256
vt 0.008147 0.009525
vt 0.006031 0.016028
vt 0.005296 0.023644
vt 0.005296 0.979001
vt 0.006031 0.986618
vt 0.008147 0.993120
vt 0.011353 0.997389
vt 0.015108 0.998904
vt 0.486080 0.998904
vt 0.489835 0.997389
vt 0.493018 0.993075
vt 0.495145 0.986618
vt 0.495892 0.979001
vt 0.495892 0.023644
vt 0.495145 0.016028
vt 0.493018 0.009571
vt 0.489835 0.005256
s 1
usemtl Material.001
f 1/1/1 3/2/1 10/3/1 7/4/1
f 3/2/2 4/5/2 9/6/2 10/3/2
f 4/5/3 5/7/3 8/8/3 9/9/3
f 5/7/4 2/10/4 6/11/4 8/8/4
f 16/12/5 18/13/5 15/14/5 12/15/5
f 18/13/6 19/16/6 14/17/6 15/14/6
f 19/18/7 20/19/7 13/20/7 14/17/7
f 20/19/8 17/21/8 11/22/8 13/20/8
f 12/15/9 1/1/9 7/4/9 16/12/9
f 21/23/10 23/24/10 30/25/10 27/26/10
f 23/24/11 24/27/11 29/28/11 30/25/11
f 24/27/12 25/29/12 28/30/12 29/31/12
f 25/29/13 22/32/13 26/33/13 28/30/13
f 26/33/14 22/32/14 11/22/14 17/21/14
f 36/34/15 38/35/15 35/36/15 32/37/15
f 38/35/16 39/38/16 34/39/16 35/36/16
f 39/40/17 40/41/17 33/42/17 34/39/17
f 40/41/18 37/43/18 31/44/18 33/42/18
f 27/26/19 36/34/19 32/37/19 21/23/19
f 31/44/20 37/43/20 6/11/20 2/10/20
f 21/45/21 32/46/21 35/47/21 34/48/21 33/49/21 31/50/21 2/51/21 5/52/21 4/53/21 3/54/21 1/55/21 12/56/21 15/57/21 14/58/21 13/59/21 11/60/21 22/61/21 25/62/21 24/63/21 23/64/21
f 36/65/22 27/66/22 30/67/22 29/68/22 28/69/22 26/70/22 17/71/22 20/72/22 19/73/22 18/74/22 16/75/22 7/76/22 10/77/22 9/78/22 8/79/22 6/80/22 37/81/22 40/82/22 39/83/22 38/84/22
